The.Scent.2012.720p.HDRip.XviD.avi.bt.td
   General
      Format : AVI
      Format/Info : Audio Video Interleave
      File size : 4.04 GiB
      Duration : 1h 58mn
      Overall bit rate : 4 900 Kbps
   Video #0
      ID : 0
      Format : MPEG-4 Visual
      Format profile : Advanced Simple@L5
      Format settings, BVOP : No
      Format settings, QPel : No
      Format settings, GMC : No warppoints
      Format settings, Matrix : Default (MPEG)
      Codec ID : XVID
      Codec ID/Hint : XviD
      Duration : 1h 58mn
      Source duration : 33mn 36s
      Bit rate : 1 144 Kbps
      Width : 1 280 pixels
      Height : 688 pixels
      Display aspect ratio : 1.860
      Frame rate : 29.970 fps
      Color space : YUV
      Chroma subsampling : 4:2:0
      Bit depth : 8 bits
      Scan type : Progressive
      Compression mode : Lossy
      Bits/(Pixel*Frame) : 0.043
      Stream size : 967 MiB (23%)
      Writing library : XviD 1.2.1 (UTC 2008-12-04)
   Audio #1
      ID : 1
      Format : AC-3
      Format/Info : Audio Coding 3
      Mode extension : CM (complete main)
      Codec ID : 2000
      Duration : 1h 58mn
      Source duration : 32mn 44s
      Bit rate mode : Constant
      Bit rate : 320 Kbps
      Channel(s) : 2 channels
      Channel positions : Front: L R
      Sampling rate : 44.1 KHz
      Bit depth : 16 bits
      Compression mode : Lossy
      Stream size : 74.9 MiB (2%)
      Alignment : Aligned on interleaves
      Interleave, duration : 36 ms (1.07 video frame)